HIERARCHY
ROOT Hips
{
	OFFSET 0.00000 0.00000 0.00000
	CHANNELS 6 Xposition Yposition Zposition Zrotation Yrotation Xrotation 
	JOINT LHipJoint
	{
		OFFSET 0 0 0
		CHANNELS 3 Zrotation Yrotation Xrotation
		JOINT LeftUpLeg
		{
			OFFSET 1.75344 -1.53157 0.77399
			CHANNELS 3 Zrotation Yrotation Xrotation
			JOINT LeftLeg
			{
				OFFSET 2.25415 -6.19323 0.00000
				CHANNELS 3 Zrotation Yrotation Xrotation
				JOINT LeftFoot
				{
					OFFSET 2.30342 -6.32861 0.00000
					CHANNELS 3 Zrotation Yrotation Xrotation
					JOINT LeftToeBase
					{
						OFFSET 0.10958 -0.30108 1.49206
						CHANNELS 3 Zrotation Yrotation Xrotation
						End Site
						{
							OFFSET 0.00000 -0.00000 0.77783
						}
					}
				}
			}
		}
	}
	JOINT RHipJoint
	{
		OFFSET 0 0 0
		CHANNELS 3 Zrotation Yrotation Xrotation
		JOINT RightUpLeg
		{
			OFFSET -1.81912 -1.53156 0.77399
			CHANNELS 3 Zrotation Yrotation Xrotation
			JOINT RightLeg
			{
				OFFSET -2.22882 -6.12365 0.00000
				CHANNELS 3 Zrotation Yrotation Xrotation
				JOINT RightFoot
				{
					OFFSET -2.21943 -6.09785 0.00000
					CHANNELS 3 Zrotation Yrotation Xrotation
					JOINT RightToeBase
					{
						OFFSET -0.18931 -0.52012 1.59379
						CHANNELS 3 Zrotation Yrotation Xrotation
						End Site
						{
							OFFSET -0.00000 -0.00000 0.84686
						}
					}
				}
			}
		}
	}
	JOINT LowerBack
	{
		OFFSET 0 0 0
		CHANNELS 3 Zrotation Yrotation Xrotation
		JOINT Spine
		{
			OFFSET -0.00200 1.66634 -0.14248
			CHANNELS 3 Zrotation Yrotation Xrotation
			JOINT Spine1
			{
				OFFSET -0.00875 1.64542 0.09514
				CHANNELS 3 Zrotation Yrotation Xrotation
				JOINT Neck
				{
					OFFSET 0 0 0
					CHANNELS 3 Zrotation Yrotation Xrotation
					JOINT Neck1
					{
						OFFSET 0.02257 1.59605 0.00839
						CHANNELS 3 Zrotation Yrotation Xrotation
						JOINT Head
						{
							OFFSET -0.10214 1.57530 -0.23335
							CHANNELS 3 Zrotation Yrotation Xrotation
							End Site
							{
								OFFSET -0.03588 1.60717 -0.08062
							}
						}
					}
				}
				JOINT LeftShoulder
				{
					OFFSET 0 0 0
					CHANNELS 3 Zrotation Yrotation Xrotation
					JOINT LeftArm
					{
						OFFSET 2.54983 1.10186 0.40078
						CHANNELS 3 Zrotation Yrotation Xrotation
						JOINT LeftForeArm
						{
							OFFSET 4.28840 -0.00000 0.00000
							CHANNELS 3 Zrotation Yrotation Xrotation
							JOINT LeftHand
							{
								OFFSET 3.06552 -0.00000 -0.00000
								CHANNELS 3 Zrotation Yrotation Xrotation
								JOINT LeftFingerBase
								{
									OFFSET 0 0 0
									CHANNELS 3 Zrotation Yrotation Xrotation
									JOINT LeftHandIndex1
									{
										OFFSET 0.75304 -0.00000 0.00000
										CHANNELS 3 Zrotation Yrotation Xrotation
										End Site
										{
											OFFSET 0.60712 -0.00000 0.00000
										}
									}
								}
								JOINT LThumb
								{
									OFFSET 0 0 0
									CHANNELS 3 Zrotation Yrotation Xrotation
									End Site
									{
										OFFSET 0.61639 -0.00000 0.61639
									}
								}
							}
						}
					}
				}
				JOINT RightShoulder
				{
					OFFSET 0 0 0
					CHANNELS 3 Zrotation Yrotation Xrotation
					JOINT RightArm
					{
						OFFSET -2.60909 1.35448 0.21802
						CHANNELS 3 Zrotation Yrotation Xrotation
						JOINT RightForeArm
						{
							OFFSET -4.52172 -0.00000 -0.00000
							CHANNELS 3 Zrotation Yrotation Xrotation
							JOINT RightHand
							{
								OFFSET -2.89140 -0.00000 0.00000
								CHANNELS 3 Zrotation Yrotation Xrotation
								JOINT RightFingerBase
								{
									OFFSET 0 0 0
									CHANNELS 3 Zrotation Yrotation Xrotation
									JOINT RightHandIndex1
									{
										OFFSET -0.68054 -0.00000 0.00000
										CHANNELS 3 Zrotation Yrotation Xrotation
										End Site
										{
											OFFSET -0.54867 -0.00000 0.00000
										}
									}
								}
								JOINT RThumb
								{
									OFFSET 0 0 0
									CHANNELS 3 Zrotation Yrotation Xrotation
									End Site
									{
										OFFSET -0.55705 -0.00000 0.55705
									}
								}
							}
						}
					}
				}
			}
		}
	}
}
MOTION
Frames: 9
Frame Time: .0083333
8.5460 21.0593 13.4079 -179.2530 -4.0750 180.4680 0.0000 0.0000 0.0000 -20.1121 -31.2803 -5.4963 1.5957 7.9676 22.6156 4.6907 5.3115 -42.9795 12.4307 18.5669 67.3478 0.0000 0.0000 0.0000 23.4094 34.8616 -0.7967 -0.8062 -5.7302 16.0035 -7.5619 0.1378 -52.6697 -12.3454 -18.5329 67.0795 2.6262 0.1147 15.1858 1.4590 0.7797 -2.5478 -0.0821 0.2366 -11.3468 -6.5305 -3.0958 -7.5289 3.2329 -3.7242 6.7497 2.0389 -1.8898 3.7863 -0.0000 0.0000 0.0000 61.4278 -31.8264 -104.0297 17.4462 -27.4423 -4.2910 -0.0000 0.0000 -9.7299 27.0017 -49.2287 -21.1017 -7.1250 0.0000 -0.0000 -6.8582 -22.1778 8.9875 -0.0000 0.0000 0.0000 -54.1451 37.1807 -88.7990 -21.5279 32.4394 -6.3308 0.0000 0.0000 1.8322 -13.0199 -36.3066 7.7962 7.1250 -0.0000 -0.0000 26.7406 -65.0997 -13.4359
8.5369 20.9747 13.2971 -179.3940 -4.1306 180.0340 0.0000 0.0000 0.0000 -20.1659 -30.1003 -5.8087 1.5362 7.8245 22.1824 4.2410 6.4648 -41.4646 12.3705 18.5429 67.1584 0.0000 0.0000 0.0000 23.0034 35.7812 -0.8263 -0.8367 -5.8351 16.3067 -7.8075 1.3281 -53.3086 -12.3708 -18.5430 67.1595 2.7324 0.0407 15.6403 1.4865 0.7170 -2.4833 -0.0974 0.1975 -11.5420 -6.7719 -2.9959 -7.5409 3.4530 -3.5850 6.8653 2.1683 -1.8203 3.8364 -0.0000 0.0000 0.0000 61.5277 -31.9465 -102.8464 17.6215 -27.6698 -4.3720 -0.0000 0.0000 -10.1563 25.6301 -49.0600 -19.9212 -7.1250 0.0000 -0.0000 -7.4022 -21.6351 9.6706 -0.0000 0.0000 0.0000 -55.4498 37.7473 -88.7224 -21.5251 32.4362 -6.3293 0.0000 0.0000 2.0218 -12.6961 -35.8464 7.5157 7.1250 -0.0000 -0.0000 26.5585 -64.6094 -13.0382
8.5303 20.8732 13.1822 -179.7580 -4.1135 179.6440 0.0000 0.0000 0.0000 -20.4691 -28.5743 -6.1634 1.4706 7.6632 21.6957 3.7595 7.3892 -39.6675 12.2725 18.5035 66.8500 0.0000 0.0000 0.0000 22.3634 36.6314 -0.8900 -0.8703 -5.9482 16.6343 -7.9903 2.0651 -53.8225 -12.3717 -18.5434 67.1623 2.5690 0.1370 15.6309 1.4155 0.7991 -2.2706 -0.1048 0.2481 -11.2951 -6.6908 -2.9810 -7.2234 3.4995 -3.5958 6.6547 2.1694 -1.8215 3.6989 0.0000 -0.0000 0.0000 61.8905 -32.0521 -102.2011 17.8333 -27.9432 -4.4708 -0.0000 0.0000 -10.2804 24.4788 -48.8411 -18.9204 -7.1250 0.0000 -0.0000 -7.8410 -21.1169 10.2121 0.0000 -0.0000 0.0000 -56.5526 37.8155 -88.5775 -21.5569 32.4727 -6.3463 0.0000 0.0000 2.4492 -13.6189 -35.6539 8.0381 7.1250 -0.0000 -0.0000 25.3351 -64.6943 -12.4494
8.5238 20.7560 13.0619 -180.1880 -4.2053 179.3120 0.0000 0.0000 0.0000 -20.8596 -27.1910 -6.6269 1.4076 7.5044 21.2187 3.0947 9.6439 -37.6131 11.9857 18.3846 65.9435 0.0000 0.0000 0.0000 21.6676 37.4645 -0.9026 -0.8994 -6.0441 16.9123 -8.1450 2.4418 -54.3049 -12.3458 -18.5330 67.0809 2.4228 0.1812 16.1424 1.3066 0.8450 -2.3899 -0.1549 0.2719 -11.7290 -6.5551 -2.9640 -7.2367 3.2921 -3.5788 6.9319 2.0750 -1.8232 3.7873 -0.0000 -0.0000 0.0000 62.1399 -32.3775 -101.4361 18.0668 -28.2426 -4.5808 -0.0000 0.0000 -10.0850 23.4116 -48.7339 -18.0276 -7.1250 0.0000 -0.0000 -8.2791 -20.7362 10.7603 -0.0000 -0.0000 0.0000 -57.4882 38.0184 -88.0571 -21.5230 32.4337 -6.3281 0.0000 0.0000 2.9790 -13.1263 -35.5030 7.7124 7.1250 -0.0000 -0.0000 25.7039 -64.4260 -12.4825
8.5157 20.6324 12.9404 -180.4520 -4.5242 179.0430 0.0000 0.0000 0.0000 -21.0703 -26.2931 -7.0910 1.3377 7.3233 20.6769 1.8461 14.9037 -34.6523 11.2697 18.0645 63.6542 0.0000 0.0000 0.0000 21.0654 38.1949 -1.0184 -0.9365 -6.1642 17.2617 -8.2202 3.2726 -54.4286 -12.3680 -18.5419 67.1506 2.5508 0.1636 16.3359 1.2388 0.8464 -2.3600 -0.3034 0.2604 -11.8061 -6.4911 -2.9280 -7.3227 3.1599 -3.5210 6.9752 2.0210 -1.7983 3.8101 -0.0000 0.0000 0.0000 62.4361 -32.3704 -100.8693 18.3198 -28.5647 -4.7011 -0.0000 0.0000 -9.7419 22.6186 -48.6231 -17.3612 -7.1250 0.0000 -0.0000 -8.5980 -20.4289 11.1553 -0.0000 0.0000 0.0000 -58.5514 37.7989 -87.6208 -21.4285 32.3251 -6.2775 0.0000 0.0000 3.2296 -13.0022 -35.0847 7.5603 7.1250 -0.0000 -0.0000 25.3804 -64.0234 -12.0783
8.5083 20.5033 12.8170 -180.6470 -4.7387 178.7270 0.0000 0.0000 0.0000 -21.2637 -25.8309 -7.2573 1.2685 7.1388 20.1274 0.4065 19.9580 -31.0690 10.1875 17.5139 60.1132 0.0000 0.0000 0.0000 20.5258 38.4992 -1.2146 -0.9723 -6.2777 17.5922 -8.0930 3.6661 -53.9107 -12.4049 -18.5566 67.2666 2.6641 0.2201 16.4192 1.2546 0.9444 -2.2734 -0.3765 0.2991 -11.7532 -6.4900 -2.9263 -7.2765 3.0815 -3.5152 6.9490 1.9944 -1.7989 3.7889 0.0000 -0.0000 0.0000 62.4232 -32.1958 -99.8517 18.6475 -28.9783 -4.8589 -0.0000 0.0000 -9.8536 22.7057 -48.4803 -17.3951 -7.1250 0.0000 -0.0000 -8.5213 -20.3149 11.0442 0.0000 -0.0000 0.0000 -59.7804 37.4952 -87.5958 -21.3717 32.2597 -6.2472 0.0000 0.0000 3.4289 -12.8554 -34.8782 7.4350 7.1250 -0.0000 -0.0000 25.3182 -63.8016 -11.9162
8.5007 20.3613 12.6888 -180.9530 -4.8721 178.4130 0.0000 0.0000 0.0000 -21.6256 -25.6047 -7.1800 1.2144 6.9905 19.6871 -0.0621 20.9192 -29.0927 9.8348 17.3159 58.9347 0.0000 0.0000 0.0000 19.8349 38.2672 -1.5143 -0.9911 -6.3361 17.7628 -7.7768 1.6693 -53.1310 -12.2579 -18.4975 66.8038 2.6088 0.3109 16.4837 1.2738 1.0570 -2.2434 -0.3539 0.3562 -11.7554 -6.6199 -2.9406 -7.1996 3.0860 -3.5353 7.1771 2.0199 -1.8181 3.8598 0.0000 0.0000 0.0000 62.1787 -32.0274 -98.5484 19.0088 -29.4296 -5.0352 -0.0000 0.0000 -10.2265 22.9007 -48.4504 -17.5438 -7.1250 0.0000 -0.0000 -8.4270 -20.3357 10.9216 0.0000 0.0000 0.0000 -61.0359 37.3160 -87.9223 -21.3809 32.2702 -6.2521 0.0000 0.0000 3.8410 -12.3469 -34.9585 7.1488 7.1250 -0.0000 -0.0000 25.9525 -63.7368 -12.1955
8.4913 20.2028 12.5565 -181.2190 -5.0846 178.1920 0.0000 0.0000 0.0000 -21.9433 -25.5218 -7.1142 1.1650 6.8519 19.2774 -0.1183 20.3679 -27.8871 9.7330 17.2569 58.5922 0.0000 0.0000 0.0000 19.0947 37.7858 -1.9715 -1.0068 -6.3846 17.9044 -7.3446 -1.2589 -52.2021 -12.0091 -18.3945 66.0178 2.6460 0.3604 16.3928 1.2881 1.1284 -2.2341 -0.3772 0.3886 -11.6894 -6.8462 -2.9337 -7.2523 3.1475 -3.5170 7.5624 2.0851 -1.8211 4.0153 -0.0000 0.0000 0.0000 62.0286 -31.7971 -97.6707 19.3117 -29.8042 -5.1849 -0.0000 0.0000 -10.3505 22.5541 -48.1030 -17.1786 -7.1250 0.0000 -0.0000 -8.4881 -19.9168 10.9658 -0.0000 0.0000 0.0000 -62.3573 37.1290 -88.5245 -21.3086 32.1868 -6.2135 0.0000 0.0000 4.0894 -12.3283 -35.0677 7.1571 7.1250 -0.0000 -0.0000 26.0901 -63.8279 -12.3200
8.4819 20.0291 12.4231 -181.2600 -5.3554 177.9850 0.0000 0.0000 0.0000 -22.0514 -25.3443 -7.1409 1.1124 6.7007 18.8317 -0.2443 20.0984 -26.4831 9.3278 17.0141 57.2169 0.0000 0.0000 0.0000 18.6962 37.7273 -2.1712 -1.0287 -6.4517 18.1008 -7.0853 -2.9636 -51.6947 -11.8833 -18.3409 65.6185 2.8695 0.3660 16.1503 1.3622 1.1757 -2.2097 -0.4321 0.4002 -11.5165 -6.7289 -2.9135 -7.3047 2.8473 -3.4863 7.9361 1.9626 -1.8244 4.1444 -0.0000 0.0000 0.0000 61.7756 -31.4765 -96.7758 19.6914 -30.2687 -5.3749 -0.0000 0.0000 -10.7134 22.5546 -47.4629 -17.0158 -7.1250 0.0000 -0.0000 -8.3206 -19.3049 10.6925 -0.0000 0.0000 0.0000 -63.5543 37.0104 -89.3847 -21.3446 32.2284 -6.2327 0.0000 0.0000 4.1247 -12.2770 -35.3963 7.1842 7.1250 -0.0000 -0.0000 26.5055 -64.1026 -12.6992
